<?xml version="1.0" standalone="no"?>
<!DOCTYPE svg PUBLIC "-//W3C//DTD SVG 20010904//EN"
 "http://www.w3.org/TR/2001/REC-SVG-20010904/DTD/svg10.dtd">
<svg version="1.0" xmlns="http://www.w3.org/2000/svg"
 width="700.000000pt" height="700.000000pt" viewBox="0 0 700.000000 700.000000"
 preserveAspectRatio="xMidYMid meet">
<metadata>
Created by potrace 1.11, written by Peter Selinger 2001-2013
</metadata>
<g transform="translate(0.000000,700.000000) scale(0.100000,-0.100000)"
fill="#000000" stroke="none">
<path d="M2174 6818 c-119 -26 -188 -181 -125 -281 11 -18 257 -269 547 -559
290 -291 525 -529 523 -529 -2 -1 -499 -2 -1104 -4 -605 -1 -1119 -5 -1143 -9
-103 -17 -204 -49 -292 -92 -79 -39 -109 -62 -180 -133 -115 -116 -170 -229
-196 -406 -10 -62 -11 -3849 -1 -3925 3 -30 18 -95 32 -143 88 -306 298 -493
599 -533 28 -4 1226 -8 2661 -9 2730 -1 2678 -2 2810 41 243 78 410 273 476
559 l24 100 -1 1925 c0 1059 -3 1950 -7 1980 -24 177 -82 297 -201 415 -115
114 -247 179 -438 216 -47 9 -339 13 -1165 13 -606 1 -1104 3 -1107 6 -2 3
234 244 525 535 292 292 537 542 544 556 19 35 25 102 14 143 -16 58 -76 116
-137 131 -45 12 -59 12 -105 -2 -49 -14 -80 -43 -634 -596 -320 -320 -585
-583 -590 -584 -5 -2 -270 258 -589 576 -380 380 -592 585 -615 594 -52 22
-80 25 -125 15z"/>
</g>
</svg>
